<svg xmlns="http://www.w3.org/2000/svg" width="1030" height="180" viewBox="0 0 1030 180"><defs><clipPath id="a"><path d="M80 34c40 16 56 51 56 58 0 30-32 54-56 56-24-2-56-26-56-56 0-7 16-42 56-58"/></clipPath></defs><path fill="#0a2472" d="M80 34c40 16 56 51 56 58 0 30-32 54-56 56-24-2-56-26-56-56 0-7 16-42 56-58"/><g clip-path="url(#a)"><path fill="#d0182f" d="M20 150V90l120-60v50z"/><path stroke="#fff" stroke-width="6" d="M28 142 132 40"/></g><path fill="none" stroke="#fff" stroke-width="4" d="M80 34c40 16 56 51 56 58 0 30-32 54-56 56-24-2-56-26-56-56 0-7 16-42 56-58Z"/><g stroke="#0b0b0c" stroke-linejoin="round" stroke-width="1.73" paint-order="stroke fill"><path fill="#fff" d="M186.19 122.64v-57.6h-11.04v-9.6h32.64v9.6h-11.04v57.6h-10.56m26.69 0v-67.2h10.56V82.8h11.33V55.44h10.56v67.2h-10.56V92.4h-11.33v30.24h-10.56m40.32 0v-67.2H282v9.6h-18.24V82.8h14.5v9.6h-14.5v20.64H282v9.6h-28.8"/><path fill="#b9d2ef" d="M303.41 122.64v-67.2h15.93q8.16 0 11.91 3.79 3.74 3.79 3.74 11.67v2.68q0 5.19-1.68 8.45-1.68 3.27-5.13 4.71v.19q7.87 2.69 7.87 14.01v5.76q0 7.78-4.08 11.86t-11.95 4.08h-16.61m10.56-39.84h4.13q3.16 0 4.75-1.63 1.58-1.63 1.58-5.47v-3.75q0-3.65-1.29-5.28-1.3-1.63-4.08-1.63h-5.09V82.8m0 30.24h6.05q2.78 0 4.12-1.49 1.35-1.49 1.35-5.13v-5.86q0-4.61-1.59-6.38-1.58-1.78-5.23-1.78h-4.7v20.64m28.22 9.6v-67.2h15.65q8.16 0 11.9 3.79 3.75 3.79 3.75 11.67v4.12q0 10.47-6.91 13.25v.19q3.84 1.16 5.42 4.71t1.58 9.5v11.81q0 2.88.2 4.66.19 1.77.96 3.5h-10.76q-.57-1.63-.76-3.07-.2-1.44-.2-5.19V102.1q0-4.61-1.48-6.44-1.49-1.82-5.14-1.82h-3.65v28.8h-10.56m10.56-38.4h3.84q3.17 0 4.75-1.63 1.59-1.63 1.59-5.47v-5.19q0-3.65-1.3-5.28-1.29-1.63-4.08-1.63h-4.8v19.2m28.13 38.4v-67.2h10.56v67.2h-10.56m26.69 0v-57.6h-11.04v-9.6h32.64v9.6h-11.04v57.6h-10.56m26.69 0v-67.2h10.56v67.2h-10.56m32.16.96q-7.68 0-11.62-4.37t-3.94-12.53v-3.84h9.99v4.61q0 6.53 5.47 6.53 2.69 0 4.08-1.58 1.39-1.59 1.39-5.14 0-4.22-1.92-7.44t-7.1-7.73q-6.53-5.76-9.12-10.41-2.59-4.66-2.59-10.52 0-7.96 4.03-12.33t11.71-4.37q7.58 0 11.47 4.37t3.89 12.53v2.78h-9.98V70.7q0-3.45-1.35-5.04-1.34-1.58-3.93-1.58-5.28 0-5.28 6.43 0 3.65 1.96 6.82 1.97 3.17 7.16 7.68 6.62 5.76 9.12 10.46 2.49 4.71 2.49 11.04 0 8.26-4.08 12.67-4.08 4.42-11.85 4.42m21.98-.96v-67.2h10.56V82.8h11.33V55.44h10.56v67.2h-10.56V92.4h-11.33v30.24H488.4"/><path fill="#fff" d="M544.08 122.64v-67.2h10.56v67.2h-10.56m18.43 0v-67.2h13.25l10.27 40.22h.19V55.44h9.41v67.2h-10.85l-12.67-49.06h-.19v49.06h-9.41m48.39 0-10.18-67.2h10.66l6.91 52.13h.19l6.91-52.13h9.7l-10.18 67.2H610.9m26.49 0 10.95-67.2h14.3l10.94 67.2h-10.56l-1.92-13.34v.19h-12l-1.92 13.15h-9.79m12.96-22.27h9.51l-4.71-33.22h-.19l-4.61 33.22m42.05 23.23q-7.68 0-11.62-4.37-3.93-4.37-3.93-12.53v-3.84h9.98v4.61q0 6.53 5.47 6.53 2.69 0 4.08-1.58 1.4-1.59 1.4-5.14 0-4.22-1.92-7.44t-7.11-7.73q-6.53-5.76-9.12-10.41-2.59-4.66-2.59-10.52 0-7.96 4.03-12.33t11.71-4.37q7.59 0 11.48 4.37 3.88 4.37 3.88 12.53v2.78h-9.98V70.7q0-3.45-1.34-5.04-1.35-1.58-3.94-1.58-5.28 0-5.28 6.43 0 3.65 1.97 6.82t7.15 7.68q6.62 5.76 9.12 10.46 2.5 4.71 2.5 11.04 0 8.26-4.08 12.67-4.08 4.42-11.86 4.42m21.98-.96v-67.2h10.56v67.2h-10.56m33.7.96q-7.78 0-11.9-4.42-4.13-4.41-4.13-12.48V71.38q0-8.07 4.13-12.48 4.12-4.42 11.9-4.42t11.9 4.42q4.13 4.41 4.13 12.48v35.32q0 8.07-4.13 12.48-4.12 4.42-11.9 4.42m0-9.6q5.47 0 5.47-6.62V70.7q0-6.62-5.47-6.62t-5.47 6.62v36.68q0 6.62 5.47 6.62m23.14 8.64v-67.2h13.24l10.28 40.22h.19V55.44h9.41v67.2h-10.85l-12.67-49.06h-.2v49.06h-9.4m66.04 0V94.03L824.5 55.44h11.23l7.2 24.67h.19l7.2-24.67h10.27l-12.77 38.59v28.61h-10.56m28.13 0v-67.2h28.8v9.6h-18.24V82.8h14.5v9.6h-14.5v20.64h18.24v9.6h-28.8m32.07 0 10.94-67.2h14.3l10.95 67.2h-10.56l-1.92-13.34v.19h-12l-1.92 13.15h-9.79m12.96-22.27h9.5l-4.7-33.22h-.2l-4.6 33.22m28.32 22.27v-67.2h15.64q8.16 0 11.91 3.79 3.74 3.79 3.74 11.67v4.12q0 10.47-6.91 13.25v.19q3.84 1.16 5.42 4.71 1.59 3.55 1.59 9.5v11.81q0 2.88.19 4.66.19 1.77.96 3.5h-10.75q-.58-1.63-.77-3.07t-.19-5.19V102.1q0-4.61-1.49-6.44-1.49-1.82-5.14-1.82h-3.64v28.8h-10.56m10.56-38.4h3.84q3.16 0 4.75-1.63 1.58-1.63 1.58-5.47v-5.19q0-3.65-1.29-5.28-1.3-1.63-4.08-1.63h-4.8v19.2m41.85 39.36q-7.68 0-11.61-4.37-3.94-4.37-3.94-12.53v-3.84h9.98v4.61q0 6.53 5.48 6.53 2.68 0 4.08-1.58 1.39-1.59 1.39-5.14 0-4.22-1.92-7.44t-7.11-7.73q-6.52-5.76-9.12-10.41-2.59-4.66-2.59-10.52 0-7.96 4.03-12.33 4.04-4.37 11.72-4.37 7.58 0 11.47 4.37t3.89 12.53v2.78h-9.99V70.7q0-3.45-1.34-5.04-1.35-1.58-3.94-1.58-5.28 0-5.28 6.43 0 3.65 1.97 6.82t7.15 7.68q6.63 5.76 9.12 10.46 2.5 4.71 2.5 11.04 0 8.26-4.08 12.67-4.08 4.42-11.86 4.42"/></g></svg>